<?xml version="1.0" encoding="iso-8859-1"?>
<!-- Generator: Adobe Illustrator 19.0.0, SVG Export Plug-In . SVG Version: 6.00 Build 0)  -->
<svg xmlns="http://www.w3.org/2000/svg" xmlns:xlink="http://www.w3.org/1999/xlink" version="1.1" id="Capa_1" x="0px" y="0px" viewBox="0 0 512 512" style="enable-background:new 0 0 512 512;" xml:space="preserve" width="512px" height="512px">
<g>
	<g>
		<path d="M240.812,29.16L219.369,7.718c-2.97-2.97-7.784-2.97-10.753,0c-2.97,2.97-2.97,7.784,0,10.753l8.462,8.462h-5.832    c-55.405,0-100.48,45.075-100.48,100.481c0,4.199,3.405,7.604,7.604,7.604s7.604-3.405,7.604-7.604    c0-47.02,38.253-85.273,85.272-85.273h5.832l-8.462,8.462c-2.97,2.97-2.97,7.784,0,10.753c1.484,1.485,3.431,2.227,5.377,2.227    c1.946,0,3.892-0.742,5.376-2.227l21.443-21.442c1.427-1.425,2.227-3.36,2.227-5.377C243.04,32.52,242.238,30.585,240.812,29.16z" fill="#FFFFFF"/>
	</g>
</g>
<g>
	<g>
		<path d="M511.743,340.679c-1.079-4.058-5.247-6.474-9.302-5.396l-11.565,3.073l2.926-5.044    c13.467-23.216,17.087-50.288,10.192-76.227s-23.476-47.641-46.693-61.108c-3.632-2.106-8.285-0.871-10.393,2.763    c-2.107,3.633-0.87,8.285,2.763,10.393c19.703,11.428,33.776,29.846,39.626,51.859c5.851,22.013,2.779,44.987-8.65,64.69    l-2.927,5.045l-3.074-11.566c-1.079-4.058-5.247-6.474-9.302-5.396c-4.058,1.079-6.474,5.244-5.396,9.302l7.789,29.307    c0.905,3.405,3.98,5.653,7.344,5.653c0.647,0,1.304-0.083,1.958-0.256l29.307-7.789    C510.406,348.902,512.822,344.737,511.743,340.679z" fill="#FFFFFF"/>
	</g>
</g>
<g>
	<g>
		<path d="M232.194,443.802c-2.102-3.636-6.751-4.883-10.389-2.782c-19.726,11.389-42.706,14.415-64.706,8.518    c-22.002-5.895-40.39-20.005-51.779-39.731l-2.916-5.051l11.56,3.097c4.052,1.084,8.225-1.32,9.313-5.378    c1.087-4.056-1.321-8.225-5.378-9.313l-29.291-7.848c-1.947-0.521-4.023-0.248-5.77,0.76c-1.747,1.009-3.02,2.669-3.543,4.617    l-7.848,29.291c-1.087,4.056,1.321,8.225,5.378,9.313c0.659,0.176,1.321,0.261,1.973,0.261c3.357,0,6.43-2.241,7.34-5.638    l3.097-11.559l2.916,5.05c13.419,23.244,35.088,39.87,61.013,46.817c8.657,2.32,17.441,3.467,26.17,3.467    c17.411,0,34.595-4.566,50.078-13.506C233.047,452.089,234.293,447.439,232.194,443.802z" fill="#FFFFFF"/>
	</g>
</g>
<g>
	<g>
		<path d="M376.059,450.085h-72.215c-4.199,0-7.604,3.405-7.604,7.604c0,4.199,3.405,7.604,7.604,7.604h72.215    c4.199,0,7.604-3.405,7.604-7.604C383.663,453.489,380.259,450.085,376.059,450.085z" fill="#FFFFFF"/>
	</g>
</g>
<g>
	<g>
		<path d="M354.262,318.746c-20.374,0-36.95,16.576-36.95,36.95v36.121h-13.468c-4.199,0-7.604,3.405-7.604,7.604    c0,4.199,3.405,7.604,7.604,7.604h13.468v26.409c0,4.199,3.405,7.604,7.604,7.604s7.604-3.405,7.604-7.604v-26.409h27.235    c4.199,0,7.604-3.405,7.604-7.604c0-4.199-3.405-7.604-7.604-7.604H332.52v-36.121c0-11.989,9.753-21.742,21.742-21.742    c11.989,0,21.742,9.753,21.742,21.742v17.64c0,4.199,3.405,7.604,7.604,7.604s7.604-3.405,7.604-7.604v-17.64    C391.212,335.321,374.637,318.746,354.262,318.746z" fill="#FFFFFF"/>
	</g>
</g>
<g>
	<g>
		<path d="M348.001,292.332c-59.049,0-107.089,48.04-107.089,107.089c0,59.049,48.04,107.09,107.089,107.09    s107.09-48.041,107.09-107.09C455.091,340.371,407.051,292.332,348.001,292.332z M348.001,491.302    c-50.663,0-91.881-41.218-91.881-91.882c0-50.664,41.217-91.881,91.881-91.881s91.882,41.217,91.882,91.881    C439.883,450.084,398.665,491.302,348.001,491.302z" fill="#FFFFFF"/>
	</g>
</g>
<g>
	<g>
		<path d="M388.715,164.539c-3.244-2.666-8.037-2.197-10.702,1.047c-8.356,10.169-19.228,15.768-30.611,15.768    c-18.925,0-35.134-15.31-41.678-36.875h44.207c4.199,0,7.604-3.405,7.604-7.604c0-4.199-3.405-7.604-7.604-7.604h-47.071    c-0.156-1.967-0.237-3.962-0.237-5.982c0-2.02,0.081-4.015,0.237-5.982h47.071c4.199,0,7.604-3.405,7.604-7.604    c0-4.199-3.405-7.604-7.604-7.604h-44.207c6.544-21.566,22.753-36.876,41.678-36.876c11.385,0,22.255,5.6,30.611,15.768    c2.665,3.244,7.457,3.714,10.702,1.047c3.244-2.666,3.714-7.458,1.047-10.702c-11.298-13.749-26.343-21.321-42.361-21.321    c-27.046,0-49.959,21.981-57.419,52.084h-6.894c-4.199,0-7.604,3.405-7.604,7.604c0,4.199,3.405,7.604,7.604,7.604h4.544    c-0.132,1.975-0.217,3.966-0.217,5.982c0,2.016,0.085,4.007,0.217,5.982h-4.544c-4.199,0-7.604,3.405-7.604,7.604    c0,4.199,3.405,7.604,7.604,7.604h6.894c7.46,30.101,30.373,52.083,57.419,52.083c16.019,0,31.064-7.573,42.361-21.321    C392.429,171.997,391.959,167.204,388.715,164.539z" fill="#FFFFFF"/>
	</g>
</g>
<g>
	<g>
		<path d="M442.473,72.817c-1.983-3.704-6.591-5.097-10.293-3.116c-3.703,1.982-5.097,6.59-3.116,10.293    c7.077,13.221,10.818,28.192,10.818,43.296c0,50.663-41.218,91.881-91.882,91.881c-50.663,0-91.881-41.217-91.881-91.881    S297.337,31.409,348,31.409c24.543,0,47.616,9.558,64.97,26.911c2.969,2.97,7.783,2.97,10.753,0c2.97-2.97,2.97-7.783,0-10.753    C403.498,27.341,376.605,16.202,348,16.202c-59.049,0-107.089,48.04-107.089,107.089c0,59.049,48.041,107.089,107.09,107.089    s107.09-48.04,107.09-107.089C455.091,105.692,450.728,88.238,442.473,72.817z" fill="#FFFFFF"/>
	</g>
</g>
<g>
	<g>
		<path d="M114.694,254.381v-39.23c4.042,1.005,7.722,2.818,10.746,5.337c4.438,3.698,6.881,8.494,6.881,13.507    c0,4.199,3.405,7.604,7.604,7.604s7.604-3.405,7.604-7.604c0-17.033-14.161-31.251-32.835-34.337v-3.969    c0-4.199-3.405-7.604-7.604-7.604c-4.199,0-7.604,3.405-7.604,7.604v3.969c-18.674,3.086-32.835,17.305-32.835,34.337    c0,17.033,14.161,31.251,32.835,34.337v39.23c-4.042-1.005-7.722-2.818-10.746-5.337c-4.438-3.698-6.881-8.494-6.881-13.507    c0-4.199-3.405-7.604-7.604-7.604s-7.604,3.404-7.604,7.604c0,17.033,14.161,31.251,32.835,34.337v3.969    c0,4.199,3.405,7.604,7.604,7.604c4.199,0,7.604-3.405,7.604-7.604v-3.969c18.674-3.086,32.835-17.305,32.835-34.337    C147.528,271.685,133.368,257.467,114.694,254.381z M99.486,252.836c-4.042-1.004-7.722-2.816-10.746-5.336    c-4.438-3.698-6.881-8.494-6.881-13.507s2.443-9.809,6.881-13.507c3.023-2.519,6.704-4.332,10.746-5.337V252.836z M125.44,302.225    c-3.023,2.519-6.704,4.332-10.746,5.337v-37.686c4.042,1.004,7.722,2.815,10.746,5.336c4.438,3.698,6.881,8.494,6.881,13.507    S129.877,298.527,125.44,302.225z" fill="#FFFFFF"/>
	</g>
</g>
<g>
	<g>
		<path d="M107.09,154.267C48.041,154.267,0,202.306,0,261.355s48.041,107.089,107.09,107.089    c59.049,0,107.089-48.04,107.089-107.089C214.178,202.306,166.139,154.267,107.09,154.267z M107.09,353.236    c-50.664,0-91.882-41.217-91.882-91.881c0-50.663,41.218-91.881,91.882-91.881c50.663,0,91.881,41.217,91.881,91.881    C198.971,312.019,157.753,353.236,107.09,353.236z" fill="#FFFFFF"/>
	</g>
</g>
<g>
</g>
<g>
</g>
<g>
</g>
<g>
</g>
<g>
</g>
<g>
</g>
<g>
</g>
<g>
</g>
<g>
</g>
<g>
</g>
<g>
</g>
<g>
</g>
<g>
</g>
<g>
</g>
<g>
</g>
</svg>
