<?xml version="1.0"?>
<svg xmlns="http://www.w3.org/2000/svg" height="512px" viewBox="0 0 480 480.01658" width="512px"><path d="m448.007812 136.015625h16v16h-16zm0 0" fill="#FFFFFF"/><path d="m448.007812 168.015625h16v16h-16zm0 0" fill="#FFFFFF"/><path d="m432.007812 152.015625h16v16h-16zm0 0" fill="#FFFFFF"/><path d="m464.007812 152.015625h16v16h-16zm0 0" fill="#FFFFFF"/><path d="m64.007812 48.015625h16v16h-16zm0 0" fill="#FFFFFF"/><path d="m64.007812 80.015625h16v16h-16zm0 0" fill="#FFFFFF"/><path d="m48.007812 64.015625h16v16h-16zm0 0" fill="#FFFFFF"/><path d="m80.007812 64.015625h16v16h-16zm0 0" fill="#FFFFFF"/><path d="m288.007812 416.015625h16v16h-16zm0 0" fill="#FFFFFF"/><path d="m288.007812 448.015625h16v16h-16zm0 0" fill="#FFFFFF"/><path d="m272.007812 432.015625h16v16h-16zm0 0" fill="#FFFFFF"/><path d="m304.007812 432.015625h16v16h-16zm0 0" fill="#FFFFFF"/><path d="m.0078125 240.015625c0 16.710937 31.5273435 26.398437 68.4882815 32.085937 14.363281 51.9375 61.625 87.902344 115.511718 87.902344 53.886719 0 101.148438-35.964844 115.511719-87.902344 36.960938-5.6875 68.488281-15.375 68.488281-32.085937 0-9.359375-7.382812-22.734375-68.519531-32.207031-14.402343-51.882813-61.636719-87.789063-115.480469-87.789063s-101.074218 35.90625-115.480468 87.789063c-61.253906 9.496094-68.5195315 22.894531-68.5195315 32.207031zm183.9999995 104c-44.105468-.078125-83.375-27.945313-98.015624-69.550781 32.554687 3.53125 65.269531 5.386718 98.015624 5.550781 32.746094-.164063 65.460938-2.019531 98.015626-5.550781-14.636719 41.605468-53.90625 69.472656-98.015626 69.550781zm167.6875-104c-3.480468 4.488281-20.207031 10.503906-48.800781 15.390625 1.480469-10.242188 1.480469-20.644531 0-30.886719 33.953125 5.808594 46.234375 12.574219 48.800781 15.496094zm-167.6875-104c30.757813-.148437 59.988282 13.386719 79.765626 36.941406 19.777343 23.554688 28.054687 54.6875 22.585937 84.953125-33.945313 4.277344-68.136719 6.316406-102.351563 6.105469-34.214843.210937-68.40625-1.828125-102.351562-6.105469-5.46875-30.265625 2.808594-61.398437 22.585938-84.953125 19.777343-23.554687 49.007812-37.089843 79.765624-36.941406zm-118.886718 88.519531c-1.476563 10.25-1.476563 20.65625 0 30.902344-28.585938-4.886719-45.304688-10.902344-48.800782-15.390625 2.558594-2.925781 14.769532-9.710937 48.800782-15.511719zm0 0" fill="#FFFFFF"/><path d="m415.59375 45.488281c-1.089844-3.265625-4.144531-5.46875-7.585938-5.472656h-34.582031l-13.984375-34.976563c-1.214844-3.042968-4.15625-5.039062-7.433594-5.039062-3.273437 0-6.21875 1.996094-7.429687 5.039062l-13.984375 34.976563h-34.585938c-3.441406 0-6.5 2.203125-7.589843 5.46875-1.089844 3.269531.035156 6.863281 2.789062 8.929687l27.097657 20.320313-13.726563 34.304687c-1.28125 3.191407-.378906 6.84375 2.238281 9.070313 2.617188 2.230469 6.367188 2.535156 9.3125.761719l35.878906-21.527344 35.878907 21.527344c2.945312 1.773437 6.695312 1.46875 9.3125-.761719 2.621093-2.226563 3.519531-5.878906 2.242187-9.070313l-13.730468-34.304687 27.097656-20.320313c2.75-2.066406 3.871094-5.660156 2.785156-8.925781zm-47.015625 29.503907 7.199219 17.941406-19.632813-11.773438c-2.535156-1.523437-5.703125-1.523437-8.242187 0l-19.628906 11.773438 7.199218-17.941406c1.335938-3.367188.246094-7.214844-2.664062-9.375l-12.800782-9.601563h16c3.273438.003906 6.214844-1.988281 7.433594-5.023437l8.566406-21.441407 8.570313 21.441407c1.214844 3.035156 4.160156 5.027343 7.429687 5.023437h16l-12.800781 9.601563c-2.894531 2.167968-3.976562 6.011718-2.628906 9.375zm0 0" fill="#FFFFFF"/><path d="m34.847656 478.136719c2.640625 2.222656 6.40625 2.5 9.34375.695312l35.816406-22.015625 35.816407 21.984375c2.941406 1.804688 6.707031 1.523438 9.347656-.699219 2.636719-2.222656 3.554687-5.890624 2.269531-9.09375l-13.730468-34.273437 27.097656-20.320313c2.753906-2.066406 3.878906-5.660156 2.789062-8.929687-1.089844-3.265625-4.144531-5.46875-7.589844-5.46875h-34.582031l-13.984375-34.976563c-1.214844-3.042968-4.15625-5.039062-7.433594-5.039062-3.273437 0-6.21875 1.996094-7.429687 5.039062l-13.984375 34.976563h-34.585938c-3.441406 0-6.5 2.203125-7.589843 5.46875-1.089844 3.269531.035156 6.863281 2.789062 8.929687l27.097657 20.320313-13.726563 34.304687c-1.285156 3.203126-.371094 6.871094 2.269531 9.097657zm29.160156-62.121094c3.273438.003906 6.214844-1.988281 7.433594-5.023437l8.566406-21.441407 8.570313 21.441407c1.214844 3.035156 4.160156 5.027343 7.429687 5.023437h16l-12.800781 9.601563c-2.894531 2.167968-3.976562 6.011718-2.628906 9.375l7.03125 17.597656-19.417969-11.917969c-2.566406-1.574219-5.800781-1.574219-8.367187 0l-19.414063 11.894531 7.03125-17.597656c1.332032-3.355469.253906-7.1875-2.632812-9.351562l-12.800782-9.601563zm0 0" fill="#FFFFFF"/><path d="m424.007812 272.015625c-30.925781 0-56 25.070313-56 56 0 30.925781 25.074219 56 56 56 30.929688 0 56-25.074219 56-56-.035156-30.914063-25.085937-55.964844-56-56zm0 96c-22.089843 0-40-17.910156-40-40s17.910157-40 40-40c22.09375 0 40 17.910156 40 40-.027343 22.082031-17.917968 39.972656-40 40zm0 0" fill="#FFFFFF"/><path d="m400.007812 312.015625h16v16h-16zm0 0" fill="#FFFFFF"/><path d="m424.007812 336.015625h16v16h-16zm0 0" fill="#FFFFFF"/><path d="m160.007812 152.015625h16v16h-16zm0 0" fill="#FFFFFF"/><path d="m200.007812 232.015625h16v16h-16zm0 0" fill="#FFFFFF"/><path d="m144.007812 304.015625h16v16h-16zm0 0" fill="#FFFFFF"/><path d="m232.007812 296.015625h16v16h-16zm0 0" fill="#FFFFFF"/></svg>
